# File created by Blade
# Date/Time:  Wed Jan 21 14:37:15 2015
# Frame Rate: 120.000 fps
#------------------------------------------------------
:FULLY-SPECIFIED
:DEGREES
757
root 18.932954 35.563654 -20.848857 -175.791067 -3.337996 -178.404569
Spine -17.187905 -5.232551 1.531883
Head 7.605103 0.426344 0.018685
LeftShoulder 0.257822 -38.405620 11.642635
LeftArm 51.741170 40.347362 -25.260555
LeftForeArm 28.363969 0.000000 92.762465
LeftHand -2.504799 -0.000000 2.768212
LeftHandThumb1 -26.253704 0.000000 33.147579
RightShoulder -0.782743 -8.544015 2.279243
RightArm 39.505946 -16.753692 33.051117
RightForeArm -23.144052 -0.000000 70.681306
RightHand 4.253554 -0.000000 3.756500
RightHandThumb1 -24.326973 -0.000000 -32.862282
LeftUpLeg 1.070214 12.372108 2.489312
LeftLeg -5.551777 -0.000000 0.000000
LeftFoot -18.449711 28.722125 -10.188053
LeftToeBase 27.532123 -0.000000 -0.000000
RightUpLeg 1.100152 -10.158130 1.905188
RightLeg -3.402527 -0.000000 0.000000
RightFoot -19.235864 -26.459597 13.078732
RightToeBase 24.035711 -0.000000 -0.000000
758
root 18.931094 35.564357 -20.843157 -175.739163 -3.525491 -178.426135
Spine -17.137491 -5.209426 1.483398
Head 7.476059 0.245728 0.034257
LeftShoulder -0.079040 -37.736824 11.552016
LeftArm 50.596691 39.887750 -24.033897
LeftForeArm 27.796286 -0.000000 92.420051
LeftHand -2.603277 -0.000000 3.145398
LeftHandThumb1 -26.253704 0.000000 33.147579
RightShoulder -1.113111 -8.974646 2.217362
RightArm 39.032704 -16.191371 32.095721
RightForeArm -24.273570 -0.000000 70.179471
RightHand 3.945917 -0.000000 3.579415
RightHandThumb1 -24.326973 -0.000000 -32.862282
LeftUpLeg 0.980927 12.291224 2.454702
LeftLeg -5.564892 -0.000000 0.000000
LeftFoot -18.399576 28.642431 -10.163746
LeftToeBase 27.531637 -0.000000 -0.000000
RightUpLeg 1.062102 -10.282347 1.900111
RightLeg -3.412652 -0.000000 0.000000
RightFoot -19.248040 -26.510047 13.094215
RightToeBase 24.025339 -0.000000 -0.000000
759
root 18.929741 35.565046 -20.838489 -175.699024 -3.695683 -178.439466
Spine -17.070300 -5.197945 1.454345
Head 7.355431 0.158420 0.070107
LeftShoulder -0.342998 -37.412173 11.507941
LeftArm 48.837534 39.686206 -23.372321
LeftForeArm 27.524339 0.000000 92.129085
LeftHand -2.658938 0.000000 3.126535
LeftHandThumb1 -26.253704 0.000000 33.147579
RightShoulder -1.366144 -9.212511 2.093105
RightArm 38.375869 -15.651215 31.464774
RightForeArm -25.572562 -0.000000 69.526078
RightHand 4.063646 -0.000000 3.656350
RightHandThumb1 -24.326973 -0.000000 -32.862282
LeftUpLeg 0.916193 12.225041 2.432004
LeftLeg -5.593167 -0.000000 0.000000
LeftFoot -18.341218 28.559003 -10.146665
LeftToeBase 27.523465 -0.000000 -0.000000
RightUpLeg 1.041577 -10.391249 1.902058
RightLeg -3.434615 -0.000000 0.000000
RightFoot -19.262244 -26.562405 13.103758
RightToeBase 24.053922 -0.000000 -0.000000
760
root 18.933641 35.565410 -20.834442 -175.639535 -3.847848 -178.448144
Spine -17.024790 -5.157300 1.394635
Head 7.241490 0.059949 0.134046
LeftShoulder -0.707116 -36.685841 11.454575
LeftArm 47.613270 39.123666 -22.323787
LeftForeArm 27.024749 -0.000000 91.599621
LeftHand -2.572293 -0.000000 3.433522
LeftHandThumb1 -26.253704 0.000000 33.147579
RightShoulder -1.630385 -9.294014 1.977844
RightArm 37.567369 -15.225401 30.909050
RightForeArm -27.107800 0.000000 68.922297
RightHand 3.877539 0.000000 3.677713
RightHandThumb1 -24.326973 -0.000000 -32.862282
LeftUpLeg 0.839776 12.141516 2.421701
LeftLeg -5.625272 -0.000000 0.000000
LeftFoot -18.295435 28.490443 -10.142193
LeftToeBase 27.583502 -0.000000 -0.000000
RightUpLeg 0.992408 -10.499805 1.922304
RightLeg -3.445295 -0.000000 0.000000
RightFoot -19.276281 -26.579631 13.200591
RightToeBase 23.884601 -0.000000 -0.000000
761
root 18.930119 35.566411 -20.832634 -175.599526 -4.007955 -178.458737
Spine -16.948609 -5.114302 1.360406
Head 7.104420 -0.066591 0.148218
LeftShoulder -0.992747 -36.040320 11.286195
LeftArm 46.263848 38.564102 -21.336590
LeftForeArm 26.660380 -0.000000 91.011595
LeftHand -2.279829 -0.000000 3.690998
LeftHandThumb1 -26.253704 0.000000 33.147579
RightShoulder -1.992809 -9.587778 1.899625
RightArm 36.969184 -14.583633 30.229273
RightForeArm -28.518302 -0.000000 68.203998
RightHand 3.970852 -0.000000 3.851043
RightHandThumb1 -24.326973 -0.000000 -32.862282
LeftUpLeg 0.786881 12.036069 2.400377
LeftLeg -5.657271 -0.000000 0.000000
LeftFoot -18.222561 28.449905 -10.112287
LeftToeBase 27.509462 -0.000000 -0.000000
RightUpLeg 0.973113 -10.616070 1.922140
RightLeg -3.460643 -0.000000 0.000000
RightFoot -19.283210 -26.624423 13.162512
RightToeBase 24.031328 -0.000000 -0.000000
762
root 18.929209 35.567518 -20.830138 -175.540900 -4.135454 -178.460713
Spine -16.887667 -5.066696 1.318687
Head 6.947404 -0.216629 0.222442
LeftShoulder -1.309513 -35.529248 11.231700
LeftArm 44.827421 38.144714 -20.483014
LeftForeArm 26.436243 -0.000000 90.425462
LeftHand -2.569215 -0.000000 3.719015
LeftHandThumb1 -26.253704 0.000000 33.147579
RightShoulder -2.258966 -9.590217 1.788927
RightArm 36.109351 -14.197547 29.627221
RightForeArm -30.019787 -0.000000 67.498696
RightHand 4.037120 -0.000000 3.923509
RightHandThumb1 -24.326973 -0.000000 -32.862282
LeftUpLeg 0.716568 11.969406 2.388472
LeftLeg -5.688205 -0.000000 0.000000
LeftFoot -18.189427 28.396246 -10.116638
LeftToeBase 27.544176 -0.000000 -0.000000
RightUpLeg 0.932396 -10.678368 1.934590
RightLeg -3.478842 -0.000000 0.000000
RightFoot -19.293847 -26.656630 13.201924
RightToeBase 24.002917 -0.000000 -0.000000
763
root 18.929171 35.568225 -20.830019 -175.480698 -4.254728 -178.471877
Spine -16.828002 -5.026329 1.258328
Head 6.803510 -0.335226 0.293589
LeftShoulder -1.580366 -35.074450 11.106405
LeftArm 43.290797 37.693863 -19.633256
LeftForeArm 26.043393 -0.000000 89.788361
LeftHand -2.470768 -0.000000 3.629658
LeftHandThumb1 -26.253704 0.000000 33.147579
RightShoulder -2.507670 -9.595485 1.670464
RightArm 35.210983 -13.793636 29.072944
RightForeArm -31.580904 0.000000 66.753294
RightHand 4.194397 0.000000 4.038757
RightHandThumb1 -24.326973 -0.000000 -32.862282
LeftUpLeg 0.647872 11.920996 2.368307
LeftLeg -5.716486 -0.000000 0.000000
LeftFoot -18.145989 28.332197 -10.119580
LeftToeBase 27.517998 -0.000000 -0.000000
RightUpLeg 0.888511 -10.755431 1.941405
RightLeg -3.488657 -0.000000 0.000000
RightFoot -19.315429 -26.690589 13.199343
RightToeBase 24.047650 -0.000000 -0.000000
764
root 18.927462 35.569790 -20.829003 -175.415572 -4.352955 -178.471961
Spine -16.770132 -4.963028 1.234962
Head 6.651121 -0.385308 0.378344
LeftShoulder -1.902105 -34.610273 11.034749
LeftArm 41.798691 37.230002 -18.941616
LeftForeArm 25.952682 0.000000 88.942019
LeftHand -2.273212 0.000000 3.346840
LeftHandThumb1 -26.253704 0.000000 33.147579
RightShoulder -2.837614 -9.735612 1.547565
RightArm 34.511136 -13.335585 28.452791
RightForeArm -33.099728 -0.000000 65.856849
RightHand 4.212877 -0.000000 3.989405
RightHandThumb1 -24.326973 -0.000000 -32.862282
LeftUpLeg 0.581410 11.860052 2.354645
LeftLeg -5.751626 -0.000000 0.000000
LeftFoot -18.102537 28.299936 -10.125436
LeftToeBase 27.476300 -0.000000 -0.000000
RightUpLeg 0.831439 -10.791822 1.954764
RightLeg -3.490652 -0.000000 0.000000
RightFoot -19.318187 -26.717816 13.269723
RightToeBase 23.917781 -0.000000 -0.000000
765
root 18.920670 35.569850 -20.837151 -175.375889 -4.562719 -178.481833
Spine -16.720648 -5.038171 1.218798
Head 6.565587 -0.454650 0.431144
LeftShoulder -2.188331 -34.356452 11.050925
LeftArm 39.957886 36.967778 -18.590451
LeftForeArm 25.828919 0.000000 88.046147
LeftHand -1.946074 -0.000000 3.078811
LeftHandThumb1 -26.253704 0.000000 33.147579
RightShoulder -3.126702 -9.887501 1.466830
RightArm 33.788974 -12.716301 27.855443
RightForeArm -34.488601 -0.000000 64.885845
RightHand 4.284377 -0.000000 4.273038
RightHandThumb1 -24.326973 -0.000000 -32.862282
LeftUpLeg 0.541672 11.673188 2.337075
LeftLeg -5.793241 -0.000000 0.000000
LeftFoot -18.070602 28.291449 -10.123638
LeftToeBase 27.461063 -0.000000 -0.000000
RightUpLeg 0.858727 -11.008310 1.949221
RightLeg -3.556583 -0.000000 0.000000
RightFoot -19.311800 -26.681777 13.305829
RightToeBase 23.922653 -0.000000 -0.000000
